<?xml version="1.0" encoding="utf-8"?>
<!-- Generator: Adobe Illustrator 19.2.0, SVG Export Plug-In . SVG Version: 6.00 Build 0)  -->
<svg version="1.1" id="Layer_1" xmlns="http://www.w3.org/2000/svg" xmlns:xlink="http://www.w3.org/1999/xlink" x="0px" y="0px"
	 viewBox="0 0 746.3 139.8" style="enable-background:new 0 0 746.3 139.8;" xml:space="preserve">
<style type="text/css">
	.st0{fill:#FFFFFF;}
</style>
<path class="st0" d="M62.6,93.9H44.6V90c-3.2,2.2-6.5,3.7-10.1,4.5c-3.6,0.8-7.2,1.3-11,1.3c-3.5,0-6.7-0.5-9.5-1.6
	c-2.8-1-5.3-2.5-7.4-4.5c-2.1-2-3.7-4.3-4.8-7S0,77.1,0,73.8c0-4.1,0.9-7.7,2.7-10.7c1.8-3.1,4.2-5.6,7.3-7.7
	c3.1-2,6.7-3.6,10.9-4.6c4.1-1,8.6-1.5,13.4-1.5h10.4c0-4.3-1.4-7.7-4.1-10.2c-2.8-2.5-6.7-3.8-11.9-3.8c-2.5,0-5.1,0.5-7.8,1.4
	c-2.7,0.9-5.4,2.6-8,5L2.1,31c3.8-3.7,8.3-6.5,13.4-8.5c5.1-2,10.3-3,15.6-3c5,0,9.5,0.8,13.4,2.4c3.9,1.6,7.1,3.6,9.5,6.2
	c3.2,3.2,5.4,6.7,6.7,10.7c1.3,3.9,1.9,9,1.9,15.1V93.9z M44.6,75.8V62.4h-8.3c-2.5,0-4.9,0.2-7.1,0.5c-2.2,0.3-4.1,0.9-5.8,1.7
	c-1.6,0.8-2.9,1.8-3.9,3.1c-1,1.3-1.4,2.8-1.4,4.5c0,2.5,1,4.6,3,6.2c2,1.6,4.5,2.4,7.6,2.4c2.7,0,5.3-0.4,8-1.3
	C39.2,78.6,41.9,77.4,44.6,75.8z"/>
<path class="st0" d="M142,83c-3.7,4.2-8.1,7.4-13.3,9.5c-5.2,2.2-10.6,3.3-16.3,3.3c-5.3,0-10.3-1-14.9-2.9c-4.7-1.9-8.8-4.6-12.2-8
	c-3.4-3.4-6.2-7.4-8.2-12.1c-2-4.7-3-9.7-3-15.2c0-5.4,1-10.4,3-15c2-4.6,4.7-8.7,8.1-12.1c3.4-3.4,7.5-6.1,12.1-8.1
	c4.7-2,9.7-3,15.1-3c5.5,0,10.8,1,15.8,3c5,2,9.3,5.1,13,9.2l-12.2,12.4c-1.8-2.4-4.1-4.4-6.7-6c-2.6-1.6-5.8-2.4-9.6-2.4
	c-2.8,0-5.4,0.6-7.8,1.8c-2.5,1.2-4.6,2.7-6.5,4.7c-1.9,2-3.4,4.3-4.5,7c-1.1,2.7-1.6,5.5-1.6,8.5c0,3,0.5,5.9,1.6,8.5
	c1.1,2.7,2.6,5,4.4,7c1.8,2,4,3.5,6.5,4.7c2.5,1.2,5.1,1.8,7.9,1.8c3.6,0,6.9-0.9,9.8-2.6c2.9-1.7,5.3-3.9,7-6.6L142,83z"/>
<path class="st0" d="M216.3,83c-3.7,4.2-8.1,7.4-13.3,9.5c-5.2,2.2-10.6,3.3-16.3,3.3c-5.3,0-10.3-1-14.9-2.9
	c-4.7-1.9-8.8-4.6-12.2-8c-3.4-3.4-6.2-7.4-8.2-12.1c-2-4.7-3-9.7-3-15.2c0-5.4,1-10.4,3-15c2-4.6,4.7-8.7,8.1-12.1
	c3.4-3.4,7.5-6.1,12.1-8.1c4.7-2,9.7-3,15.1-3c5.5,0,10.8,1,15.8,3s9.3,5.1,13,9.2l-12.2,12.4c-1.8-2.4-4.1-4.4-6.7-6
	c-2.6-1.6-5.8-2.4-9.6-2.4c-2.8,0-5.4,0.6-7.8,1.8c-2.5,1.2-4.6,2.7-6.5,4.7c-1.9,2-3.4,4.3-4.5,7c-1.1,2.7-1.6,5.5-1.6,8.5
	c0,3,0.5,5.9,1.6,8.5s2.6,5,4.4,7c1.8,2,4,3.5,6.5,4.7c2.5,1.2,5.1,1.8,7.9,1.8c3.6,0,6.9-0.9,9.8-2.6c2.9-1.7,5.3-3.9,7-6.6
	L216.3,83z"/>
<path class="st0" d="M375.7,93.9h-18.1v-5.5c-1.2,1.2-2.5,2.2-4.1,3.1c-1.6,0.9-3.2,1.6-4.9,2.3c-1.7,0.6-3.5,1.1-5.3,1.4
	c-1.8,0.3-3.5,0.5-5.1,0.5c-3.7,0-7.2-0.6-10.6-1.8c-3.4-1.2-6.4-3-9-5.4c-2.6-2.4-4.7-5.6-6.2-9.4c-1.5-3.8-2.3-8.4-2.3-13.7V21.3
	h18.1v43.2c0,2.6,0.4,4.9,1.2,6.8c0.8,2,1.8,3.6,3.1,4.9c1.3,1.3,2.8,2.3,4.5,2.9s3.5,0.9,5.3,0.9c5.9,0,10.9-2,15.2-6V21.3h18.1
	V93.9z"/>
<path class="st0" d="M456.8,93.9h-18.1V50.6c0-2.6-0.4-4.9-1.2-6.8c-0.8-2-1.9-3.6-3.2-4.9c-1.3-1.3-2.9-2.3-4.6-2.9
	c-1.7-0.6-3.5-0.9-5.4-0.9c-2.8,0-5.5,0.5-8.2,1.4c-2.7,1-5.1,2.5-7.3,4.6v52.8h-18.1V21.3h18.1l0.1,5.4c1.1-1.1,2.4-2.1,4-3
	c1.6-0.9,3.2-1.7,5-2.3c1.7-0.6,3.5-1.1,5.3-1.4c1.8-0.3,3.5-0.5,5.2-0.5c3.7,0,7.2,0.6,10.6,1.8c3.4,1.2,6.4,3,9,5.4
	c2.6,2.4,4.7,5.6,6.3,9.4c1.6,3.9,2.4,8.4,2.4,13.7V93.9z"/>
<path class="st0" d="M511.1,92.3c-1.8,1.2-4,2-6.4,2.6c-2.4,0.6-4.9,0.9-7.3,0.9c-4.3,0-7.9-0.5-10.8-1.6c-2.9-1-5.3-2.7-7-4.8
	c-1.8-2.2-3-4.9-3.8-8.3c-0.8-3.3-1.2-7.3-1.2-11.8V37.5H465v-8.2c5.9-2.4,10.6-6,14.2-10.8c3.6-4.8,6.1-11,7.5-18.6h5.9v21.2h18.3
	v16.3h-18.3v33c0,1.8,0.2,3.3,0.7,4.5c0.5,1.2,1.1,2.1,1.8,2.8c0.8,0.7,1.6,1.1,2.6,1.4c1,0.3,2,0.4,3.1,0.4c1.4,0,3.1-0.3,5.1-0.8
	c2-0.5,3.7-1.3,5.1-2.5V92.3z"/>
<path class="st0" d="M596.7,57.5c0,1.2-0.1,2.4-0.2,3.6c-0.1,1.3-0.3,2.6-0.4,3.9h-58c0.7,2.1,1.6,4.1,2.8,6
	c1.2,1.9,2.7,3.5,4.5,4.9c1.8,1.4,3.7,2.5,6,3.3c2.2,0.8,4.7,1.2,7.3,1.2c3.3,0,6.5-0.6,9.8-1.7c3.3-1.1,6-2.7,8.2-4.6L588,85.5
	c-5,3.8-9.9,6.4-14.8,8c-4.8,1.5-9.9,2.3-15.3,2.3c-5.4,0-10.5-1-15.3-3c-4.7-2-8.8-4.7-12.3-8.2c-3.5-3.4-6.2-7.5-8.2-12.1
	c-2-4.6-3-9.6-3-14.9c0-5.3,1-10.2,3-14.9c2-4.6,4.8-8.7,8.3-12.1c3.5-3.4,7.6-6.2,12.3-8.2c4.7-2,9.7-3,15.1-3
	c5.1,0,10,0.9,14.7,2.8c4.7,1.9,8.8,4.5,12.4,7.8c3.6,3.4,6.4,7.3,8.5,12C595.6,46.8,596.7,51.9,596.7,57.5z M577.7,50.5
	c-1.4-4.6-4-8.3-7.6-11.1c-3.6-2.8-7.8-4.2-12.4-4.2c-4.5,0-8.6,1.4-12.2,4.2c-3.6,2.8-6.1,6.5-7.5,11.1H577.7z"/>
<path class="st0" d="M682.9,57.5c0,1.2-0.1,2.4-0.2,3.6c-0.1,1.3-0.3,2.6-0.4,3.9h-58c0.7,2.1,1.6,4.1,2.8,6
	c1.2,1.9,2.7,3.5,4.5,4.9c1.8,1.4,3.7,2.5,6,3.3c2.2,0.8,4.7,1.2,7.3,1.2c3.3,0,6.5-0.6,9.8-1.7s6-2.7,8.2-4.6l11.4,11.4
	c-5,3.8-9.9,6.4-14.8,8s-9.9,2.3-15.3,2.3c-5.4,0-10.5-1-15.3-3c-4.7-2-8.8-4.7-12.3-8.2c-3.5-3.4-6.2-7.5-8.2-12.1
	c-2-4.6-3-9.6-3-14.9c0-5.3,1-10.2,3-14.9c2-4.6,4.8-8.7,8.3-12.1c3.5-3.4,7.6-6.2,12.3-8.2c4.7-2,9.7-3,15.1-3
	c5.1,0,10,0.9,14.7,2.8c4.7,1.9,8.8,4.5,12.4,7.8c3.6,3.4,6.4,7.3,8.5,12C681.9,46.8,682.9,51.9,682.9,57.5z M664,50.5
	c-1.4-4.6-4-8.3-7.6-11.1c-3.6-2.8-7.8-4.2-12.4-4.2c-4.5,0-8.6,1.4-12.2,4.2c-3.6,2.8-6.1,6.5-7.5,11.1H664z"/>
<path class="st0" d="M746.3,28.9l-9.7,15.3c-1.8-1.9-3.7-3.6-5.8-5.1c-2.1-1.5-4.3-2.2-6.5-2.2c-1.2,0-2.4,0.3-3.8,0.8
	c-1.4,0.5-2.7,1.4-3.9,2.7c-1.2,1.3-2.2,2.9-3.1,5c-0.8,2.1-1.3,4.6-1.3,7.6v40.9h-18.1V21.3h18.1v7.8c2.2-3.1,4.6-5.5,7.2-7.2
	s5.6-2.5,8.8-2.5c3.2,0,6.3,0.9,9.4,2.6C740.8,23.7,743.7,26,746.3,28.9z"/>
<path class="st0" d="M222.7,57.6c0-21.1,17.1-38.2,38.2-38.2c21.1,0,38.2,17.1,38.2,38.2S282,95.8,260.9,95.8
	C239.8,95.8,222.7,78.7,222.7,57.6z M247.3,61.9V40.6c0-2.2-1.8-4-4-4h0c-2.2,0-4,1.8-4,4v21.3c0,2.2,1.8,4,4,4h0
	C245.5,65.9,247.3,64.1,247.3,61.9z M269.8,64.9V40.6c0-2.2-1.8-4-4-4l0,0c-2.2,0-4,1.8-4,4v24.3c0,2.2,1.8,4,4,4l0,0
	C268,68.9,269.8,67.1,269.8,64.9z M281,72.9V47.6c0-2.2-1.8-4-4-4l0,0c-2.2,0-4,1.8-4,4v25.3c0,2.2,1.8,4,4,4l0,0
	C279.2,76.9,281,75.1,281,72.9z M258.5,83.4V51.1c0-2.2-1.8-4-4-4l0,0c-2.2,0-4,1.8-4,4v32.3c0,2.2,1.8,4,4,4l0,0
	C256.7,87.4,258.5,85.6,258.5,83.4z"/>
<g>
	<path class="st0" d="M326.2,122.9c0,1-0.2,2-0.7,2.8c-0.5,0.8-1.1,1.5-1.9,2c-0.8,0.5-1.6,0.9-2.6,1.2c-1,0.3-1.9,0.4-2.9,0.4
		c-1.6,0-3.1-0.3-4.4-0.9c-1.3-0.6-2.5-1.5-3.5-2.8l3.1-3.2c0.6,0.8,1.3,1.4,2.2,1.9c0.8,0.4,1.7,0.7,2.6,0.7c0.8,0,1.5-0.2,2-0.5
		c0.5-0.3,0.8-0.8,0.8-1.4c0-0.6-0.4-1.1-1.2-1.6c-0.8-0.4-1.8-0.8-3.2-1.2c-0.8-0.2-1.6-0.5-2.4-0.9c-0.8-0.4-1.5-0.8-2.1-1.4
		c-0.6-0.5-1.1-1.2-1.4-1.9c-0.4-0.7-0.5-1.5-0.5-2.4c0-1,0.2-1.9,0.7-2.7c0.5-0.8,1.1-1.5,1.8-2c0.8-0.5,1.6-1,2.6-1.2
		c1-0.3,1.9-0.4,2.9-0.4c3.2,0,5.8,1.2,7.8,3.6l-3.1,3.1c-0.6-0.7-1.3-1.3-2.1-1.8c-0.8-0.4-1.6-0.6-2.5-0.6c-0.3,0-0.6,0-1,0.1
		c-0.3,0.1-0.7,0.2-1,0.4c-0.3,0.2-0.5,0.4-0.7,0.6c-0.2,0.3-0.3,0.5-0.3,0.8c0,0.6,0.4,1,1.1,1.4c0.7,0.4,1.8,0.8,3.2,1.2
		c0.9,0.3,1.7,0.6,2.5,1c0.8,0.4,1.5,0.9,2.1,1.4c0.6,0.5,1.1,1.2,1.4,1.8C326,121.3,326.2,122,326.2,122.9z"/>
	<path class="st0" d="M360.3,128.7h-5.2v-12.4c0-1.5-0.4-2.6-1.1-3.3c-0.7-0.8-1.6-1.1-2.6-1.1c-0.8,0-1.5,0.1-2.3,0.4
		c-0.7,0.3-1.4,0.7-2.1,1.2c0.2,0.8,0.3,1.8,0.3,2.8v12.4h-5.2v-12.4c0-1.5-0.4-2.6-1.1-3.3c-0.7-0.8-1.6-1.1-2.6-1.1
		c-0.8,0-1.5,0.1-2.1,0.4c-0.6,0.3-1.2,0.7-1.9,1.3v15.2h-5.2v-20.8h5.2l0,1.6c0.6-0.6,1.4-1.1,2.3-1.5c0.9-0.4,1.8-0.6,2.7-0.6
		c1,0,2,0.2,3.1,0.7c1,0.5,1.9,1.1,2.7,2c1.1-1,2.2-1.6,3.3-2.1c1.1-0.4,2.3-0.6,3.6-0.6c1.1,0,2.1,0.2,3.1,0.5
		c1,0.3,1.8,0.8,2.5,1.6c0.7,0.7,1.3,1.6,1.7,2.7c0.4,1.1,0.7,2.4,0.7,3.9V128.7z"/>
	<path class="st0" d="M381.1,128.7h-5.2v-1.1c-0.9,0.6-1.9,1.1-2.9,1.3c-1,0.2-2.1,0.4-3.2,0.4c-1,0-1.9-0.2-2.7-0.5
		c-0.8-0.3-1.5-0.7-2.1-1.3c-0.6-0.6-1.1-1.2-1.4-2s-0.5-1.6-0.5-2.6c0-1.2,0.3-2.2,0.8-3.1c0.5-0.9,1.2-1.6,2.1-2.2
		c0.9-0.6,1.9-1,3.1-1.3c1.2-0.3,2.5-0.4,3.8-0.4h3c0-1.2-0.4-2.2-1.2-2.9c-0.8-0.7-1.9-1.1-3.4-1.1c-0.7,0-1.5,0.1-2.2,0.4
		c-0.8,0.3-1.5,0.7-2.3,1.4l-3.1-3.1c1.1-1.1,2.4-1.9,3.8-2.5c1.5-0.6,3-0.9,4.5-0.9c1.4,0,2.7,0.2,3.9,0.7c1.1,0.5,2,1,2.7,1.8
		c0.9,0.9,1.5,1.9,1.9,3.1c0.4,1.1,0.6,2.6,0.6,4.3V128.7z M375.9,123.6v-3.9h-2.4c-0.7,0-1.4,0-2,0.1c-0.6,0.1-1.2,0.3-1.7,0.5
		c-0.5,0.2-0.8,0.5-1.1,0.9c-0.3,0.4-0.4,0.8-0.4,1.3c0,0.7,0.3,1.3,0.8,1.8c0.6,0.5,1.3,0.7,2.2,0.7c0.8,0,1.5-0.1,2.3-0.4
		C374.4,124.4,375.2,124,375.9,123.6z"/>
	<path class="st0" d="M400.1,110.1l-2.8,4.4c-0.5-0.6-1.1-1-1.7-1.5c-0.6-0.4-1.2-0.6-1.9-0.6c-0.3,0-0.7,0.1-1.1,0.2
		c-0.4,0.2-0.8,0.4-1.1,0.8c-0.3,0.4-0.6,0.8-0.9,1.4c-0.2,0.6-0.4,1.3-0.4,2.2v11.8h-5.2v-20.8h5.2v2.2c0.6-0.9,1.3-1.6,2.1-2.1
		c0.8-0.5,1.6-0.7,2.5-0.7c0.9,0,1.8,0.2,2.7,0.7C398.5,108.6,399.3,109.3,400.1,110.1z"/>
	<path class="st0" d="M413.5,128.3c-0.5,0.3-1.1,0.6-1.8,0.8c-0.7,0.2-1.4,0.3-2.1,0.3c-1.2,0-2.3-0.2-3.1-0.5
		c-0.8-0.3-1.5-0.8-2-1.4c-0.5-0.6-0.9-1.4-1.1-2.4c-0.2-1-0.3-2.1-0.3-3.4v-9.1h-2.7v-2.3c1.7-0.7,3-1.7,4.1-3.1
		c1-1.4,1.8-3.1,2.1-5.3h1.7v6.1h5.3v4.7h-5.3v9.5c0,0.5,0.1,1,0.2,1.3c0.1,0.3,0.3,0.6,0.5,0.8c0.2,0.2,0.5,0.3,0.7,0.4
		c0.3,0.1,0.6,0.1,0.9,0.1c0.4,0,0.9-0.1,1.5-0.2c0.6-0.1,1.1-0.4,1.5-0.7V128.3z"/>
	<path class="st0" d="M446.8,125.6c-1.1,1.2-2.3,2.1-3.8,2.7c-1.5,0.6-3.1,0.9-4.7,0.9c-1.5,0-2.9-0.3-4.3-0.8
		c-1.3-0.6-2.5-1.3-3.5-2.3c-1-1-1.8-2.1-2.3-3.5c-0.6-1.3-0.9-2.8-0.9-4.4c0-1.5,0.3-3,0.9-4.3c0.6-1.3,1.3-2.5,2.3-3.5
		c1-1,2.1-1.8,3.5-2.3c1.3-0.6,2.8-0.8,4.3-0.8c1.6,0,3.1,0.3,4.5,0.9c1.4,0.6,2.7,1.5,3.7,2.6l-3.5,3.6c-0.5-0.7-1.2-1.3-1.9-1.7
		c-0.8-0.5-1.7-0.7-2.8-0.7c-0.8,0-1.5,0.2-2.3,0.5c-0.7,0.3-1.3,0.8-1.9,1.4c-0.5,0.6-1,1.2-1.3,2c-0.3,0.8-0.5,1.6-0.5,2.5
		c0,0.9,0.2,1.7,0.5,2.5c0.3,0.8,0.7,1.4,1.3,2c0.5,0.6,1.2,1,1.9,1.4c0.7,0.3,1.5,0.5,2.3,0.5c1,0,2-0.2,2.8-0.7
		c0.8-0.5,1.5-1.1,2-1.9L446.8,125.6z"/>
	<path class="st0" d="M458.1,128.6c-0.4,0.2-0.9,0.3-1.4,0.5c-0.5,0.1-1.1,0.2-1.6,0.2c-0.8,0-1.5-0.1-2.2-0.3
		c-0.7-0.2-1.3-0.5-1.9-1c-0.5-0.5-0.9-1.1-1.3-1.8c-0.3-0.7-0.5-1.6-0.5-2.6V98.8h5.3v23.8c0,0.9,0.2,1.5,0.5,1.8
		c0.3,0.3,0.8,0.5,1.2,0.5c0.6,0,1.2-0.2,1.7-0.5V128.6z"/>
	<path class="st0" d="M482.2,118.3c0,1.6-0.3,3-0.9,4.3c-0.6,1.3-1.4,2.5-2.4,3.5c-1,1-2.2,1.7-3.6,2.3c-1.4,0.6-2.8,0.8-4.3,0.8
		c-1.5,0-3-0.3-4.3-0.8c-1.3-0.6-2.5-1.3-3.5-2.3c-1-1-1.8-2.1-2.4-3.5c-0.6-1.3-0.9-2.8-0.9-4.3c0-1.5,0.3-2.9,0.9-4.3
		c0.6-1.3,1.4-2.5,2.4-3.5c1-1,2.2-1.8,3.5-2.3c1.3-0.6,2.8-0.8,4.3-0.8c1.5,0,3,0.3,4.3,0.8c1.4,0.6,2.5,1.3,3.6,2.3
		c1,1,1.8,2.1,2.4,3.5C481.9,115.3,482.2,116.8,482.2,118.3z M477,118.3c0-0.9-0.2-1.7-0.5-2.5c-0.3-0.8-0.7-1.4-1.3-2
		c-0.5-0.6-1.2-1-1.9-1.4c-0.7-0.3-1.5-0.5-2.3-0.5c-0.8,0-1.6,0.2-2.3,0.5c-0.7,0.3-1.3,0.8-1.9,1.4c-0.5,0.6-1,1.2-1.3,2
		c-0.3,0.8-0.5,1.6-0.5,2.5c0,0.9,0.2,1.7,0.5,2.5c0.3,0.8,0.7,1.4,1.3,2c0.5,0.6,1.2,1,1.9,1.4c0.7,0.3,1.5,0.5,2.3,0.5
		c0.8,0,1.6-0.2,2.3-0.5c0.7-0.3,1.3-0.8,1.9-1.4c0.5-0.6,1-1.2,1.3-2C476.8,120,477,119.2,477,118.3z"/>
	<path class="st0" d="M503.9,128.7h-5.2v-1.6c-0.3,0.3-0.7,0.6-1.2,0.9c-0.4,0.3-0.9,0.5-1.4,0.6c-0.5,0.2-1,0.3-1.5,0.4
		c-0.5,0.1-1,0.1-1.5,0.1c-1.1,0-2.1-0.2-3-0.5c-1-0.3-1.8-0.9-2.6-1.6c-0.7-0.7-1.3-1.6-1.8-2.7c-0.4-1.1-0.7-2.4-0.7-3.9v-12.7
		h5.2v12.4c0,0.7,0.1,1.4,0.3,2c0.2,0.6,0.5,1,0.9,1.4c0.4,0.4,0.8,0.6,1.3,0.8c0.5,0.2,1,0.3,1.5,0.3c1.7,0,3.1-0.6,4.4-1.7v-15.1
		h5.2V128.7z"/>
	<path class="st0" d="M527.5,128.7h-5.3v-1.1c-0.7,0.6-1.4,1-2.2,1.2c-0.8,0.3-1.6,0.4-2.5,0.4c-1.5,0-2.8-0.3-4-0.9
		c-1.2-0.6-2.3-1.4-3.2-2.4c-0.9-1-1.6-2.2-2.1-3.5c-0.5-1.3-0.7-2.7-0.7-4.2c0-1.6,0.3-3,0.8-4.3c0.6-1.3,1.3-2.5,2.3-3.5
		c0.9-1,2-1.8,3.2-2.3c1.2-0.6,2.4-0.8,3.7-0.8c0.9,0,1.8,0.1,2.6,0.4c0.8,0.2,1.6,0.6,2.2,1v-9.9h5.3V128.7z M522.3,123.2v-10
		c-0.2-0.2-0.5-0.3-0.8-0.5c-0.3-0.2-0.6-0.3-1-0.4c-0.3-0.1-0.7-0.2-1-0.3c-0.3-0.1-0.6-0.1-0.9-0.1c-0.9,0-1.7,0.2-2.4,0.5
		c-0.7,0.3-1.3,0.7-1.9,1.3c-0.5,0.6-0.9,1.2-1.2,2c-0.3,0.8-0.4,1.7-0.4,2.6c0,0.9,0.1,1.8,0.4,2.6c0.3,0.8,0.7,1.5,1.2,2
		c0.5,0.6,1.1,1,1.8,1.3c0.7,0.3,1.5,0.5,2.3,0.5C519.8,124.7,521.1,124.2,522.3,123.2z"/>
	<path class="st0" d="M560.1,128.7h-5.2v-1.1c-0.9,0.6-1.9,1.1-2.9,1.3c-1,0.2-2.1,0.4-3.2,0.4c-1,0-1.9-0.2-2.7-0.5
		c-0.8-0.3-1.5-0.7-2.1-1.3c-0.6-0.6-1.1-1.2-1.4-2s-0.5-1.6-0.5-2.6c0-1.2,0.3-2.2,0.8-3.1c0.5-0.9,1.2-1.6,2.1-2.2
		c0.9-0.6,1.9-1,3.1-1.3c1.2-0.3,2.5-0.4,3.8-0.4h3c0-1.2-0.4-2.2-1.2-2.9c-0.8-0.7-1.9-1.1-3.4-1.1c-0.7,0-1.5,0.1-2.2,0.4
		c-0.8,0.3-1.5,0.7-2.3,1.4l-3.1-3.1c1.1-1.1,2.4-1.9,3.8-2.5c1.5-0.6,3-0.9,4.5-0.9c1.4,0,2.7,0.2,3.9,0.7c1.1,0.5,2,1,2.7,1.8
		c0.9,0.9,1.5,1.9,1.9,3.1s0.6,2.6,0.6,4.3V128.7z M554.9,123.6v-3.9h-2.4c-0.7,0-1.4,0-2,0.1c-0.6,0.1-1.2,0.3-1.7,0.5
		c-0.5,0.2-0.8,0.5-1.1,0.9c-0.3,0.4-0.4,0.8-0.4,1.3c0,0.7,0.3,1.3,0.8,1.8c0.6,0.5,1.3,0.7,2.2,0.7c0.8,0,1.5-0.1,2.3-0.4
		C553.4,124.4,554.1,124,554.9,123.6z"/>
	<path class="st0" d="M582.9,125.6c-1.1,1.2-2.3,2.1-3.8,2.7c-1.5,0.6-3.1,0.9-4.7,0.9c-1.5,0-2.9-0.3-4.3-0.8
		c-1.3-0.6-2.5-1.3-3.5-2.3c-1-1-1.8-2.1-2.3-3.5c-0.6-1.3-0.9-2.8-0.9-4.4c0-1.5,0.3-3,0.9-4.3c0.6-1.3,1.3-2.5,2.3-3.5
		c1-1,2.1-1.8,3.5-2.3c1.3-0.6,2.8-0.8,4.3-0.8c1.6,0,3.1,0.3,4.5,0.9c1.4,0.6,2.7,1.5,3.7,2.6l-3.5,3.6c-0.5-0.7-1.2-1.3-1.9-1.7
		c-0.8-0.5-1.7-0.7-2.8-0.7c-0.8,0-1.5,0.2-2.3,0.5c-0.7,0.3-1.3,0.8-1.9,1.4c-0.5,0.6-1,1.2-1.3,2c-0.3,0.8-0.5,1.6-0.5,2.5
		c0,0.9,0.2,1.7,0.5,2.5c0.3,0.8,0.7,1.4,1.3,2c0.5,0.6,1.2,1,1.9,1.4c0.7,0.3,1.5,0.5,2.3,0.5c1,0,2-0.2,2.8-0.7
		c0.8-0.5,1.5-1.1,2-1.9L582.9,125.6z"/>
	<path class="st0" d="M604.2,125.6c-1.1,1.2-2.3,2.1-3.8,2.7c-1.5,0.6-3.1,0.9-4.7,0.9c-1.5,0-2.9-0.3-4.3-0.8
		c-1.3-0.6-2.5-1.3-3.5-2.3c-1-1-1.8-2.1-2.3-3.5c-0.6-1.3-0.9-2.8-0.9-4.4c0-1.5,0.3-3,0.9-4.3c0.6-1.3,1.3-2.5,2.3-3.5
		c1-1,2.1-1.8,3.5-2.3c1.3-0.6,2.8-0.8,4.3-0.8c1.6,0,3.1,0.3,4.5,0.9c1.4,0.6,2.7,1.5,3.7,2.6l-3.5,3.6c-0.5-0.7-1.2-1.3-1.9-1.7
		c-0.8-0.5-1.7-0.7-2.8-0.7c-0.8,0-1.5,0.2-2.3,0.5c-0.7,0.3-1.3,0.8-1.9,1.4c-0.5,0.6-1,1.2-1.3,2c-0.3,0.8-0.5,1.6-0.5,2.5
		c0,0.9,0.2,1.7,0.5,2.5c0.3,0.8,0.7,1.4,1.3,2c0.5,0.6,1.2,1,1.9,1.4c0.7,0.3,1.5,0.5,2.3,0.5c1,0,2-0.2,2.8-0.7
		c0.8-0.5,1.5-1.1,2-1.9L604.2,125.6z"/>
	<path class="st0" d="M628.3,118.3c0,1.6-0.3,3-0.9,4.3c-0.6,1.3-1.4,2.5-2.4,3.5c-1,1-2.2,1.7-3.6,2.3c-1.4,0.6-2.8,0.8-4.3,0.8
		c-1.5,0-3-0.3-4.3-0.8c-1.3-0.6-2.5-1.3-3.5-2.3c-1-1-1.8-2.1-2.4-3.5c-0.6-1.3-0.9-2.8-0.9-4.3c0-1.5,0.3-2.9,0.9-4.3
		c0.6-1.3,1.4-2.5,2.4-3.5c1-1,2.2-1.8,3.5-2.3c1.3-0.6,2.8-0.8,4.3-0.8c1.5,0,3,0.3,4.3,0.8c1.4,0.6,2.5,1.3,3.6,2.3
		c1,1,1.8,2.1,2.4,3.5C628,115.3,628.3,116.8,628.3,118.3z M623.1,118.3c0-0.9-0.2-1.7-0.5-2.5c-0.3-0.8-0.7-1.4-1.3-2
		c-0.5-0.6-1.2-1-1.9-1.4c-0.7-0.3-1.5-0.5-2.3-0.5c-0.8,0-1.6,0.2-2.3,0.5c-0.7,0.3-1.3,0.8-1.9,1.4c-0.5,0.6-1,1.2-1.3,2
		c-0.3,0.8-0.5,1.6-0.5,2.5c0,0.9,0.2,1.7,0.5,2.5c0.3,0.8,0.7,1.4,1.3,2c0.5,0.6,1.2,1,1.9,1.4c0.7,0.3,1.5,0.5,2.3,0.5
		c0.8,0,1.6-0.2,2.3-0.5c0.7-0.3,1.3-0.8,1.9-1.4c0.5-0.6,1-1.2,1.3-2C623,120,623.1,119.2,623.1,118.3z"/>
	<path class="st0" d="M650,128.7h-5.2v-1.6c-0.3,0.3-0.7,0.6-1.2,0.9c-0.4,0.3-0.9,0.5-1.4,0.6c-0.5,0.2-1,0.3-1.5,0.4
		c-0.5,0.1-1,0.1-1.5,0.1c-1.1,0-2.1-0.2-3-0.5c-1-0.3-1.8-0.9-2.6-1.6c-0.7-0.7-1.3-1.6-1.8-2.7c-0.4-1.1-0.7-2.4-0.7-3.9v-12.7
		h5.2v12.4c0,0.7,0.1,1.4,0.3,2c0.2,0.6,0.5,1,0.9,1.4c0.4,0.4,0.8,0.6,1.3,0.8c0.5,0.2,1,0.3,1.5,0.3c1.7,0,3.1-0.6,4.4-1.7v-15.1
		h5.2V128.7z"/>
	<path class="st0" d="M673.3,128.7h-5.2v-12.4c0-0.7-0.1-1.4-0.3-2c-0.2-0.6-0.5-1-0.9-1.4c-0.4-0.4-0.8-0.6-1.3-0.8
		c-0.5-0.2-1-0.3-1.5-0.3c-0.8,0-1.6,0.1-2.4,0.4c-0.8,0.3-1.5,0.7-2.1,1.3v15.2h-5.2v-20.8h5.2l0,1.6c0.3-0.3,0.7-0.6,1.2-0.9
		c0.5-0.3,0.9-0.5,1.4-0.7c0.5-0.2,1-0.3,1.5-0.4c0.5-0.1,1-0.1,1.5-0.1c1.1,0,2.1,0.2,3,0.5c1,0.3,1.8,0.9,2.6,1.6
		c0.8,0.7,1.4,1.6,1.8,2.7c0.5,1.1,0.7,2.4,0.7,3.9V128.7z"/>
	<path class="st0" d="M688.9,128.3c-0.5,0.3-1.1,0.6-1.8,0.8c-0.7,0.2-1.4,0.3-2.1,0.3c-1.2,0-2.3-0.2-3.1-0.5
		c-0.8-0.3-1.5-0.8-2-1.4c-0.5-0.6-0.9-1.4-1.1-2.4c-0.2-1-0.3-2.1-0.3-3.4v-9.1h-2.7v-2.3c1.7-0.7,3-1.7,4.1-3.1
		c1-1.4,1.8-3.1,2.1-5.3h1.7v6.1h5.3v4.7h-5.3v9.5c0,0.5,0.1,1,0.2,1.3c0.1,0.3,0.3,0.6,0.5,0.8c0.2,0.2,0.5,0.3,0.7,0.4
		c0.3,0.1,0.6,0.1,0.9,0.1c0.4,0,0.9-0.1,1.5-0.2c0.6-0.1,1.1-0.4,1.5-0.7V128.3z"/>
	<path class="st0" d="M697.4,104.3H692v-5.4h5.4V104.3z M697.3,128.7H692v-20.9h5.3V128.7z"/>
	<path class="st0" d="M721,128.7h-5.2v-12.4c0-0.7-0.1-1.4-0.3-2c-0.2-0.6-0.5-1-0.9-1.4c-0.4-0.4-0.8-0.6-1.3-0.8s-1-0.3-1.5-0.3
		c-0.8,0-1.6,0.1-2.4,0.4c-0.8,0.3-1.5,0.7-2.1,1.3v15.2h-5.2v-20.8h5.2l0,1.6c0.3-0.3,0.7-0.6,1.2-0.9c0.5-0.3,0.9-0.5,1.4-0.7
		s1-0.3,1.5-0.4c0.5-0.1,1-0.1,1.5-0.1c1.1,0,2.1,0.2,3,0.5c1,0.3,1.8,0.9,2.6,1.6c0.8,0.7,1.4,1.6,1.8,2.7c0.5,1.1,0.7,2.4,0.7,3.9
		V128.7z"/>
	<path class="st0" d="M744.1,112h-2.2c0.6,1.1,0.8,2.2,0.8,3.5c0,0.9-0.2,1.8-0.5,2.7c-0.3,0.9-0.8,1.7-1.5,2.4
		c-0.6,0.7-1.4,1.3-2.4,1.8c-0.9,0.5-2,0.8-3.1,1c-0.8,0.1-1.4,0.3-1.8,0.6c-0.4,0.3-0.6,0.5-0.6,0.8s0.2,0.5,0.6,0.7
		c0.4,0.2,1,0.4,1.8,0.4c2.7,0.2,4.8,0.9,6.3,2c1.5,1.1,2.2,2.6,2.2,4.4c0,0.9-0.2,1.8-0.7,2.6c-0.5,0.8-1.1,1.5-2,2.1
		c-0.8,0.6-1.9,1-3.1,1.3c-1.2,0.3-2.5,0.5-4,0.5c-1.5,0-2.9-0.2-4.1-0.5c-1.2-0.3-2.2-0.8-3.1-1.3c-0.9-0.6-1.5-1.2-2-2
		c-0.5-0.8-0.7-1.7-0.7-2.6c0-1.4,0.4-2.6,1.2-3.6c0.8-1,2.2-1.7,4-2.2c-0.6-0.2-1-0.5-1.2-0.9s-0.4-0.8-0.3-1.1
		c0-0.4,0.2-0.8,0.5-1.1c0.3-0.3,0.7-0.6,1.3-0.8c-0.6-0.3-1.2-0.7-1.8-1.1c-0.6-0.5-1.1-1-1.5-1.6c-0.5-0.6-0.8-1.3-1.1-2
		c-0.3-0.7-0.4-1.5-0.4-2.4c0-1.1,0.2-2.2,0.7-3.2c0.5-1,1.1-1.8,1.9-2.6c0.8-0.7,1.8-1.3,2.8-1.7c1.1-0.4,2.2-0.6,3.4-0.6
		c1.2,0,2.3,0.2,3.3,0.5h7.1V112z M738.5,132.3c0-0.8-0.4-1.5-1.3-1.8c-0.8-0.4-1.9-0.6-3.3-0.6c-1.4,0-2.6,0.2-3.4,0.6
		c-0.8,0.4-1.2,1-1.2,1.8c0,0.8,0.4,1.4,1.3,1.8c0.9,0.4,2,0.6,3.3,0.6c1.4,0,2.5-0.2,3.3-0.6C738.1,133.8,738.5,133.2,738.5,132.3z
		 M737.6,115.5c0-0.5-0.1-1-0.3-1.5c-0.2-0.5-0.5-0.9-0.8-1.2c-0.3-0.3-0.8-0.6-1.2-0.8c-0.5-0.2-1-0.3-1.5-0.3
		c-0.5,0-1,0.1-1.5,0.3c-0.5,0.2-0.9,0.5-1.2,0.8c-0.3,0.3-0.6,0.8-0.8,1.2c-0.2,0.5-0.3,1-0.3,1.5c0,0.5,0.1,1,0.3,1.5
		c0.2,0.5,0.5,0.9,0.8,1.2c0.3,0.3,0.7,0.6,1.2,0.8c0.5,0.2,0.9,0.3,1.5,0.3c0.5,0,1-0.1,1.5-0.3c0.5-0.2,0.9-0.5,1.2-0.8
		c0.3-0.3,0.6-0.8,0.8-1.2C737.5,116.5,737.6,116,737.6,115.5z"/>
</g>
</svg>
