<svg xmlns="http://www.w3.org/2000/svg" viewBox="0 0 715 143" width="300px" height="60px" enable-background="new 0 0 715 143" preserveAspectRatio="xMinYMax meet"><path fill="none" stroke="#F15A31" stroke-width=".12" d="M667 8.7c10.5 17 21.6 22.9 25.2 42.3 4.2 22.6-19.1 45.8-45 33.4-26.6-12.7-16.3-40-8.6-52 6.1-9.6 10.7-14 17.7-23.8-15.9 1.7-29.3 11.7-36 25.5-2.9 6-4.5 12.6-4.5 19.7 0 7 1.7 13.7 4.5 19.6 7.3 15.2 22.9 25.8 40.9 25.8 25.1 0 45.4-20.3 45.4-45.4.1-23.2-17.2-42.3-39.6-45.1z"/><path d="M661.3 0c-17.2 0-32.5 8.1-42.3 20.7H0v66.1h619c9.8 12.6 25.1 20.7 42.3 20.7 29.7 0 53.7-24 53.7-53.7C715 24 691 0 661.3 0M660.9 19.6c3.4 6.6 8.9 11.3 12.4 15.9 4.8 6.4 6.5 11.1 7.8 18 1 5.1-.5 10.9-3.6 15.8-1.7 2.7-3.9 5.1-6.5 6.8-5.7 3.8-14.7 2.7-21.2-.8-8.4-4.5-8.3-13.3-8.3-18 0-5.9 2.3-13.2 6.4-19.5 0 0 9.2-14.4 11.8-18.5.4-.4.8-.4 1.2.3"/><path fill="#fff" d="M28.6 37.9c0-4 2-5.9 5.7-5.9 3.6 0 5.7 1.8 5.7 5.9v3.8h3.4c2.3 0 3.6 1.1 3.6 3.4s-1.3 3.4-3.6 3.4H40V62.2c0 .9.6 1.4 1.3 1.4 4.4 0 5.7 1.4 5.7 4.1 0 2.4-1.5 4.4-8.2 4.4-6.6 0-10.2-3.3-10.2-10V48.5h-2.2c-2.3 0-3.6-1.1-3.6-3.4s1.3-3.4 3.6-3.4h2.2v-3.8zM61.5 53.3c.2-4.1 2.9-5.6 5.5-5.6 2.9 0 5.5 1.5 5.5 5.6h-11zm20.2 12.2c0-1.9-1.6-3.9-3.6-3.9-3.6 0-6.1 3.6-10.3 3.6-3.8 0-6-2.4-6.3-6.2h16.6c3.8 0 5.4-1.3 5.4-4.8 0-4.4-4-13.4-17.1-13.4-9.3 0-16.7 4.8-16.7 15.6S57 72 66.4 72c11.3.1 15.3-3.2 15.3-6.5"/><path fill="#fff" d="M88.7 46.7c0-4 2.4-5.8 5.3-5.8s5.2 1.6 5.2 6v2.3h.1c2-5.4 4.3-8.3 7.6-8.3 3.6 0 4.8 2.8 4.8 5.4 0 2.9-1.2 4.7-3.2 5.2l-3.2.8c-3.1.8-4.9 2-4.9 5.9v8.1c0 4-2.4 5.8-5.9 5.8-3.4 0-5.9-1.8-5.9-5.8V46.7zM116.5 46.7c0-4 2.4-5.8 5.3-5.8s5.2 1.6 5.2 6v2.3h.1c2-5.4 4.3-8.3 7.6-8.3 3.6 0 4.8 2.8 4.8 5.4 0 2.9-1.2 4.7-3.2 5.2l-3.2.8c-3.1.8-4.9 2-4.9 5.9v8.1c0 4-2.4 5.8-5.9 5.8-3.4 0-5.9-1.8-5.9-5.8V46.7zM154 53.3c.2-4.1 2.9-5.6 5.5-5.6 2.9 0 5.5 1.5 5.5 5.6h-11zm20.2 12.2c0-1.9-1.6-3.9-3.6-3.9-3.6 0-6.1 3.6-10.3 3.6-3.8 0-6-2.4-6.3-6.2h16.6c3.8 0 5.4-1.3 5.4-4.8 0-4.4-4-13.4-17.1-13.4-9.3 0-16.7 4.8-16.7 15.6S149.5 72 158.9 72c11.3.1 15.3-3.2 15.3-6.5"/><path fill="#fff" d="M218.1 56.6c0 4.2-1.4 7-4.7 7-4 0-5.1-3.6-5.1-6.8 0-3.4 1.3-6.7 5.3-6.7 2.6 0 4.5 2.3 4.5 6.5m-.2-11.1h-.1c-1.7-2.7-4.4-4.6-8.2-4.6-9.8 0-13 9.8-13 15.5 0 9.6 5.1 15.7 13.3 15.7 3.4 0 8-1.6 8.9-5.3h.1c0 3 1.8 5.3 5.1 5.3 3.5 0 5.2-1.9 5.2-5.7V35.6c0-4-2.1-5.9-5.7-5.9s-5.7 1.8-5.7 5.9v9.9zM246.7 53.3c.2-4.1 2.9-5.6 5.5-5.6 2.9 0 5.5 1.5 5.5 5.6h-11zm20.2 12.2c0-1.9-1.6-3.9-3.6-3.9-3.6 0-6.1 3.6-10.3 3.6-3.8 0-6-2.4-6.3-6.2h16.6c3.8 0 5.4-1.3 5.4-4.8 0-4.4-4-13.4-17.1-13.4-9.3 0-16.7 4.8-16.7 15.6S242.2 72 251.6 72c11.3.1 15.3-3.2 15.3-6.5M287.2 60.6l-3.5-.7c-8.5-1.8-11-4.9-11-9.3 0-4.6 3.3-9.7 15-9.7 6.9 0 14.2 1.9 14.2 6.5 0 2.1-1.6 3.6-3.9 3.6-3.9 0-5.1-3.6-10.6-3.6-2.1 0-3.3.7-3.3 2.1 0 1.1.5 1.7 3.6 2.4l4.9 1.1c6.4 1.4 10.4 4.1 10.4 8.9 0 5.2-3.9 10.3-16.1 10.3-7.6 0-14.3-2.3-14.3-7.2 0-1.9 1.9-3.6 4.1-3.6 3.3 0 4.9 4.3 10.5 4.3 2.5 0 3.7-1.2 3.7-2.3.1-1.1-.5-2.1-3.7-2.8"/><path fill="#fff" d="M347.9 55.1c0-3.2-1.4-5-4.3-5s-4.3 2.3-4.3 5.8v10.4c0 4-2.4 5.8-5.9 5.8-3.4 0-5.9-1.8-5.9-5.8V35.5c0-4 2.4-5.8 5.9-5.8 3.4 0 5.9 1.8 5.9 5.8v10h.1c2.1-3.1 4.8-4.6 8.8-4.6 8.1 0 11.4 5 11.4 11.5v13.9c0 4-2.4 5.8-5.9 5.8-3.4 0-5.9-1.8-5.9-5.8V55.1zM386.8 56.8c0 4.9-1.8 7.4-4.9 7.4-3.1 0-4.9-2.5-4.9-7.4 0-5.6 1.8-8.1 4.9-8.1 3.1.1 4.9 2.6 4.9 8.1m-21.6-.3c0 10.8 7.3 15.6 16.7 15.6 9.3 0 16.7-4.8 16.7-15.6 0-10.7-7.3-15.6-16.7-15.6-9.4 0-16.7 4.9-16.7 15.6"/><path fill="#fff" d="M443.3 55.1c0-3.7-1.3-5-3.9-5-2 0-3.9 2.1-3.9 5.3v10.9c0 4-2.4 5.8-5.9 5.8-3.4 0-5.9-1.8-5.9-5.8V55.1c0-3.7-1.2-5-3.9-5-2 0-3.9 2.1-3.9 5.3v10.9c0 4-2.4 5.8-5.9 5.8-3.4 0-5.9-1.8-5.9-5.8V46.5c0-3.6 1.8-5.6 5.6-5.6 3.5 0 4.8 2 5.2 5.5h.1c1.9-3.5 5.2-5.5 9.7-5.5 3.8 0 7.8 1.7 8.8 5.7 2.5-4.1 5.7-5.7 9.9-5.7 8.1 0 11.4 5 11.4 11.5v13.9c0 4-2.4 5.8-5.9 5.8-3.4 0-5.9-1.8-5.9-5.8V55.1zM500.6 55.1c0-3.7-1.3-5-3.9-5-2 0-3.9 2.1-3.9 5.3v10.9c0 4-2.4 5.8-5.9 5.8s-5.9-1.8-5.9-5.8V55.1c0-3.7-1.2-5-3.9-5-2 0-3.9 2.1-3.9 5.3v10.9c0 4-2.4 5.8-5.9 5.8-3.4 0-5.9-1.8-5.9-5.8V46.5c0-3.6 1.8-5.6 5.6-5.6 3.5 0 4.8 2 5.2 5.5h.1c1.9-3.5 5.2-5.5 9.7-5.5 3.8 0 7.8 1.7 8.8 5.7 2.5-4.1 5.7-5.7 9.9-5.7 8.1 0 11.4 5 11.4 11.5v13.9c0 4-2.4 5.8-5.9 5.8-3.4 0-5.9-1.8-5.9-5.8V55.1zM529.9 53.3c.2-4.1 2.9-5.6 5.5-5.6 2.9 0 5.5 1.5 5.5 5.6h-11zm20.2 12.2c0-1.9-1.6-3.9-3.6-3.9-3.6 0-6.1 3.6-10.3 3.6-3.8 0-6-2.4-6.2-6.2h16.6c3.8 0 5.4-1.3 5.4-4.8 0-4.4-4-13.4-17.1-13.4-9.3 0-16.7 4.8-16.7 15.6S525.5 72 534.9 72c11.2.1 15.2-3.2 15.2-6.5M570.4 60.6l-3.5-.7c-8.5-1.8-11-4.9-11-9.3 0-4.6 3.3-9.7 15-9.7 6.9 0 14.2 1.9 14.2 6.5 0 2.1-1.6 3.6-3.9 3.6-3.9 0-5.1-3.6-10.6-3.6-2.1 0-3.3.7-3.3 2.1 0 1.1.5 1.7 3.6 2.4l4.9 1.1c6.4 1.4 10.4 4.1 10.4 8.9 0 5.2-3.9 10.3-16.1 10.3-7.6 0-14.3-2.3-14.3-7.2 0-1.9 1.9-3.6 4.1-3.6 3.3 0 4.9 4.3 10.5 4.3 2.5 0 3.7-1.2 3.7-2.3.1-1.1-.4-2.1-3.7-2.8"/><path fill="#EF4934" d="M667 8.7c10.5 17 21.6 22.9 25.2 42.3 4.2 22.6-19.1 45.8-45 33.4-26.6-12.7-16.3-40-8.6-52 6.1-9.6 10.7-14 17.7-23.8-15.9 1.7-29.3 11.7-36 25.5-2.9 6-4.5 12.6-4.5 19.7 0 7 1.7 13.7 4.5 19.6 7.3 15.2 22.9 25.8 40.9 25.8 25.1 0 45.4-20.3 45.4-45.4.1-23.2-17.2-42.3-39.6-45.1"/><path fill="#fff" d="M641.5 57.3c0 4.7-.1 13.5 8.3 18 6.6 3.5 15.6 4.6 21.2.8 2.6-1.8 4.8-4.1 6.5-6.8 3.1-4.8 4.5-10.6 3.6-15.8-1.3-6.9-3-11.7-7.8-18-3.5-4.6-9-9.3-12.4-15.9-.5-.7-.8-.7-1.2-.3-2.7 4.1-11.8 18.5-11.8 18.5-4.1 6.3-6.5 13.6-6.4 19.5"/><path d="M38.1 127.2l-2.4-.5c-6-1.3-7.7-3.4-7.7-6.5 0-3.2 2.3-6.8 10.5-6.8 4.9 0 9.9 1.4 9.9 4.5 0 1.4-1.1 2.6-2.7 2.6-2.7 0-3.5-2.6-7.4-2.6-1.5 0-2.3.5-2.3 1.5 0 .8.4 1.2 2.5 1.7l3.5.8c4.5 1 7.3 2.9 7.3 6.2 0 3.6-2.7 7.2-11.3 7.2-5.3 0-10-1.6-10-5 0-1.4 1.3-2.5 2.9-2.5 2.3 0 3.4 3 7.4 3 1.8 0 2.6-.8 2.6-1.6-.1-.8-.5-1.5-2.8-2"/><path d="M57.5 111.3c0-2.8 1.4-4.1 4-4.1 2.5 0 4 1.3 4 4.1v2.6h2.4c1.6 0 2.5.8 2.5 2.4 0 1.6-.9 2.4-2.5 2.4h-2.4v9.6c0 .6.4 1 .9 1 3.1 0 4 1 4 2.9 0 1.7-1 3.1-5.7 3.1-4.6 0-7.2-2.3-7.2-7v-9.6H56c-1.6 0-2.5-.8-2.5-2.4 0-1.6.9-2.4 2.5-2.4h1.5v-2.6zM86.6 113.4c6.5 0 11.7 3.4 11.7 10.9 0 7.6-5.1 10.9-11.7 10.9-6.5 0-11.7-3.4-11.7-10.9.1-7.5 5.2-10.9 11.7-10.9m0 5.5c-2.2 0-3.5 1.7-3.5 5.7 0 3.5 1.3 5.2 3.5 5.2s3.5-1.7 3.5-5.2c0-3.9-1.3-5.7-3.5-5.7M104.9 117.4c0-2.6 1.2-4 3.7-4 2.3 0 3.6 1.6 3.6 3.7h.1c.7-2.6 3.9-3.7 6.2-3.7 5.7 0 9.3 4.3 9.3 11 0 4-2.2 10.9-9.1 10.9-2.7 0-4.6-1.3-5.8-3.2h-.1v6.8c0 2.8-1.4 4.1-4 4.1s-4-1.3-4-4.1v-21.5zm11 11.4c2.8 0 3.7-2.3 3.7-4.7 0-2.2-.8-4.7-3.5-4.7-2.3 0-3.3 2-3.3 4.9 0 2.9 1.3 4.5 3.1 4.5M143.8 127.2l-2.4-.5c-6-1.3-7.7-3.4-7.7-6.5 0-3.2 2.3-6.8 10.5-6.8 4.9 0 9.9 1.4 9.9 4.5 0 1.4-1.1 2.6-2.7 2.6-2.7 0-3.5-2.6-7.4-2.6-1.5 0-2.3.5-2.3 1.5 0 .8.4 1.2 2.5 1.7l3.5.8c4.5 1 7.3 2.9 7.3 6.2 0 3.6-2.7 7.2-11.3 7.2-5.3 0-10-1.6-10-5 0-1.4 1.3-2.5 2.9-2.5 2.3 0 3.4 3 7.4 3 1.8 0 2.6-.8 2.6-1.6-.1-.8-.5-1.5-2.8-2M188.7 113.4c5.7 0 9.5 2.7 9.5 5.6 0 1.9-1.3 3-2.9 3-2.1 0-3-2.9-5.9-2.9-3.3 0-4.1 2.8-4.1 5 0 2.7.9 5.4 3.7 5.4 2.8 0 4-2.9 6.2-2.9 2 0 3.1 1.6 3.1 3 0 1.7-2.3 5.6-9.6 5.6-6.5 0-11.7-3.4-11.7-10.9s5.1-10.9 11.7-10.9"/><path d="M219 123.4c0-2.3-1-3.5-3-3.5s-3 1.6-3 4.1v7.3c0 2.8-1.7 4.1-4.1 4.1-2.4 0-4.1-1.3-4.1-4.1v-21.6c0-2.8 1.7-4.1 4.1-4.1 2.4 0 4.1 1.3 4.1 4.1v7h.1c1.5-2.2 3.4-3.2 6.2-3.2 5.7 0 8 3.5 8 8v9.8c0 2.8-1.7 4.1-4.1 4.1s-4.1-1.3-4.1-4.1v-7.9zM234.4 117.5c0-2.8 1.7-4.1 4.1-4.1 2.4 0 4.1 1.3 4.1 4.1v13.7c0 2.8-1.7 4.1-4.1 4.1-2.4 0-4.1-1.3-4.1-4.1v-13.7zm4.1-13.3c2.1 0 3.9 1.7 3.9 3.9s-1.7 3.9-3.9 3.9c-2.1 0-3.9-1.7-3.9-3.9.1-2.2 1.8-3.9 3.9-3.9"/><path d="M249.9 109.6c0-2.8 1.7-4.1 4.1-4.1 2.4 0 4.1 1.3 4.1 4.1v21.6c0 2.8-1.7 4.1-4.1 4.1-2.4 0-4.1-1.3-4.1-4.1v-21.6zM279.8 109.7c0-2.8 1.4-4.1 4-4.1s4 1.3 4 4.1v21.6c0 2.6-1.2 4-3.7 4-2.3 0-3.6-1.6-3.6-3.7h-.1c-.7 2.6-3.9 3.7-6.2 3.7-5.7 0-9.3-4.3-9.3-11 0-4 2.2-10.9 9.1-10.9 2.7 0 4.6 1.3 5.8 3.2h.1v-6.9zm-3 10.2c-2.8 0-3.7 2.3-3.7 4.7 0 2.2.8 4.7 3.5 4.7 2.3 0 3.3-2 3.3-4.9.1-2.9-1.3-4.5-3.1-4.5"/><path d="M322.4 135.3c-6.5 0-11.7-3.4-11.7-11 0-7.5 5.1-10.9 11.7-10.9 9.2 0 11.9 6.3 11.9 9.4 0 2.5-1.2 3.3-3.8 3.3H319c.2 2.6 1.7 4.3 4.4 4.3 3 0 4.7-2.6 7.2-2.6 1.4 0 2.6 1.4 2.6 2.7-.1 2.4-2.8 4.8-10.8 4.8m4.3-13.2c0-2.9-1.8-3.9-3.8-3.9-1.8 0-3.7 1-3.9 3.9h7.7zM350.9 115.6c1-1.8 1.9-2.2 3.3-2.2 2.1 0 3.9 1.7 3.9 3.4 0 1-.4 1.7-1.1 2.7l-2.9 4.4 3 4.5c.9 1.4 1.4 2.2 1.4 3.5 0 1.5-1.1 3.4-3.7 3.4-1.5 0-2.6-.5-3.6-2.4l-2.1-4-2.1 4c-1 2-2.1 2.4-3.6 2.4-2.6 0-3.7-1.9-3.7-3.4 0-1.2.5-2.1 1.4-3.5l3-4.5-2.9-4.4c-.7-1-1.1-1.8-1.1-2.7 0-1.6 1.7-3.4 3.9-3.4 1.4 0 2.3.4 3.3 2.3l1.8 3.5 1.8-3.6zM365.2 117.4c0-2.6 1.2-4 3.7-4 2.3 0 3.6 1.6 3.6 3.7h.1c.7-2.6 3.9-3.7 6.3-3.7 5.7 0 9.3 4.3 9.3 11 0 4-2.2 10.9-9.1 10.9-2.7 0-4.6-1.3-5.8-3.2h-.1v6.8c0 2.8-1.4 4.1-4 4.1s-4-1.3-4-4.1v-21.5zm11 11.4c2.8 0 3.7-2.3 3.7-4.7 0-2.2-.8-4.7-3.5-4.7-2.3 0-3.3 2-3.3 4.9-.1 2.9 1.3 4.5 3.1 4.5"/><path d="M394.8 109.6c0-2.8 1.7-4.1 4.1-4.1s4.1 1.3 4.1 4.1v21.6c0 2.8-1.7 4.1-4.1 4.1s-4.1-1.3-4.1-4.1v-21.6zM420.7 113.4c6.5 0 11.7 3.4 11.7 10.9 0 7.6-5.1 10.9-11.7 10.9-6.5 0-11.7-3.4-11.7-10.9s5.1-10.9 11.7-10.9m0 5.5c-2.2 0-3.5 1.7-3.5 5.7 0 3.5 1.3 5.2 3.5 5.2s3.5-1.7 3.5-5.2c-.1-3.9-1.4-5.7-3.5-5.7M438.3 117.5c0-2.8 1.7-4.1 4.1-4.1 2.4 0 4.1 1.3 4.1 4.1v13.7c0 2.8-1.7 4.1-4.1 4.1-2.4 0-4.1-1.3-4.1-4.1v-13.7zm4.1-13.3c2.1 0 3.9 1.7 3.9 3.9s-1.7 3.9-3.9 3.9-3.9-1.7-3.9-3.9 1.7-3.9 3.9-3.9"/><path d="M455.7 111.3c0-2.8 1.4-4.1 4-4.1 2.5 0 4 1.3 4 4.1v2.6h2.4c1.6 0 2.5.8 2.5 2.4 0 1.6-.9 2.4-2.5 2.4h-2.4v9.6c0 .6.4 1 .9 1 3.1 0 4 1 4 2.9 0 1.7-1 3.1-5.7 3.1-4.6 0-7.2-2.3-7.2-7v-9.6h-1.5c-1.6 0-2.5-.8-2.5-2.4 0-1.6.9-2.4 2.5-2.4h1.5v-2.6zM496.1 128.7c0 1.4.2 2.7.2 3.7 0 2-1.9 2.9-3.8 2.9-2.8 0-3.9-1.4-4.1-3.3-1.6 2.4-4.5 3.3-7.3 3.3-4.5 0-7.8-1.9-7.8-6.5 0-3.5 2.4-6 10.5-6.6 3.1-.2 4.3-.6 4.3-2 0-1.3-1.1-2-3.3-2-3.5 0-4.4 2.8-7.2 2.8-1.6 0-2.6-.9-2.6-2.5 0-3.1 4.3-5.1 10-5.1 4.3 0 11 1 11 6.1v9.2zm-7.9-3.3c-1.2 1.2-3.8 1-5.3 1.6-.7.3-1.1.8-1.1 1.7 0 1.2 1.2 2 2.5 2 2.3 0 3.9-1.4 3.9-3v-2.3zM505.2 111.3c0-2.8 1.4-4.1 4-4.1 2.5 0 4 1.3 4 4.1v2.6h2.4c1.6 0 2.5.8 2.5 2.4 0 1.6-.9 2.4-2.5 2.4h-2.4v9.6c0 .6.4 1 .9 1 3.1 0 4 1 4 2.9 0 1.7-1 3.1-5.7 3.1-4.6 0-7.2-2.3-7.2-7v-9.6h-1.5c-1.6 0-2.5-.8-2.5-2.4 0-1.6.9-2.4 2.5-2.4h1.5v-2.6zM523.3 117.5c0-2.8 1.7-4.1 4.1-4.1 2.4 0 4.1 1.3 4.1 4.1v13.7c0 2.8-1.7 4.1-4.1 4.1-2.4 0-4.1-1.3-4.1-4.1v-13.7zm4.1-13.3c2.1 0 3.9 1.7 3.9 3.9s-1.7 3.9-3.9 3.9-3.9-1.7-3.9-3.9c.1-2.2 1.8-3.9 3.9-3.9M549.1 113.4c6.5 0 11.7 3.4 11.7 10.9 0 7.6-5.1 10.9-11.7 10.9-6.5 0-11.7-3.4-11.7-10.9.1-7.5 5.2-10.9 11.7-10.9m0 5.5c-2.2 0-3.5 1.7-3.5 5.7 0 3.5 1.3 5.2 3.5 5.2s3.5-1.7 3.5-5.2c0-3.9-1.3-5.7-3.5-5.7"/><path d="M580.1 123.4c0-2.3-1-3.5-3-3.5s-3 1.6-3 4.1v7.3c0 2.8-1.7 4.1-4.1 4.1-2.4 0-4.1-1.3-4.1-4.1v-13.9c0-2.6 1.2-3.9 3.9-3.9 2.4 0 3.4 1.4 3.7 3.9h.1c1.4-2.5 3.6-3.9 6.8-3.9 5.7 0 8 3.5 8 8v9.8c0 2.8-1.7 4.1-4.1 4.1-2.4 0-4.1-1.3-4.1-4.1v-7.9z"/></svg>
